<?xml version="1.0" encoding="UTF-8"?>
<svg width="462px" height="235px" viewBox="0 0 462 235" version="1.1" xmlns="http://www.w3.org/2000/svg" xmlns:xlink="http://www.w3.org/1999/xlink">
    <!-- Generator: Sketch 48.2 (47327) - http://www.bohemiancoding.com/sketch -->
    <title>backupMagic 2</title>
    <desc>Created with Sketch.</desc>
    <defs>
        <path d="M196,5.22522523 L218.631579,37.6216216 L231,0 L245.473684,37.6216216 L266,5.22522523 L260.736842,55.9099099 C247.320571,57.3033033 237.40829,58 231,58 C224.59171,58 214.679429,57.3033033 201.263158,55.9099099 L196,5.22522523 Z" id="path-1"></path>
    </defs>
    <g id="Page-1" stroke="none" stroke-width="1" fill="none" fill-rule="evenodd">
        <g id="Group-2" transform="translate(163.000000, 39.000000)" fill="#FFFFFF" stroke="#3E71E1" stroke-width="4">
            <g id="Group" transform="translate(0.000000, 70.000000)">
                <path d="M0.0567921916,42.4778761 L0,42.4778761 L0,20.3893805 L137,20.3893805 L137,42.4778761 L136.943208,42.4778761 C136.980948,42.7596412 137,43.0428659 137,43.3274336 C137,54.7445768 106.331505,64 68.5,64 C30.6684946,64 0,54.7445768 0,43.3274336 C0,43.0428659 0.0190523603,42.7596412 0.0567931208,42.4778692 Z" id="Combined-Shape"></path>
                <ellipse id="Oval" cx="68.5" cy="20.6725664" rx="68.5" ry="20.6725664"></ellipse>
            </g>
            <g id="Group" transform="translate(0.000000, 34.000000)">
                <path d="M0.0567921916,42.4778761 L0,42.4778761 L0,20.3893805 L137,20.3893805 L137,42.4778761 L136.943208,42.4778761 C136.980948,42.7596412 137,43.0428659 137,43.3274336 C137,54.7445768 106.331505,64 68.5,64 C30.6684946,64 0,54.7445768 0,43.3274336 C0,43.0428659 0.0190523603,42.7596412 0.0567931208,42.4778692 Z" id="Combined-Shape"></path>
                <ellipse id="Oval" cx="68.5" cy="20.6725664" rx="68.5" ry="20.6725664"></ellipse>
            </g>
            <g id="Group">
                <path d="M0.0567921916,42.4778761 L0,42.4778761 L0,20.3893805 L137,20.3893805 L137,42.4778761 L136.943208,42.4778761 C136.980948,42.7596412 137,43.0428659 137,43.3274336 C137,54.7445768 106.331505,64 68.5,64 C30.6684946,64 0,54.7445768 0,43.3274336 C0,43.0428659 0.0190523603,42.7596412 0.0567931208,42.4778692 Z" id="Combined-Shape"></path>
                <ellipse id="Oval" cx="68.5" cy="20.6725664" rx="68.5" ry="20.6725664"></ellipse>
            </g>
        </g>
        <g id="Group-5" transform="translate(1.000000, 42.000000)" stroke="#3E71E1">
            <path d="M38,119.014946 L81.1394589,119.014946 C93.2938506,119.014946 103.146932,109.161865 103.146932,97.0074729 L103.146932,97.0074729 C103.146932,84.8530812 113.000013,75 125.154405,75 L150.010992,75" id="Path-2" stroke-width="3"></path>
            <path d="M18,39 L70.1544047,39 C77.3299793,39 83.1469318,44.8169525 83.1469318,51.9925271 L83.1469318,51.9925271 C83.1469318,59.1681017 88.9638844,64.9850542 96.1394589,64.9850542 L150.010992,64.9850542" id="Path-2" stroke-width="5" stroke-dasharray="10"></path>
            <path d="M38,9 L85.1544047,9 C95.0914031,9 103.146932,17.0555288 103.146932,26.9925271 L103.146932,26.9925271 C103.146932,36.9295254 111.202461,44.9850542 121.139459,44.9850542 L150.010992,44.9850542" id="Path-2" stroke-width="4"></path>
            <circle id="Oval-2" stroke-width="2" cx="29" cy="9" r="9"></circle>
            <circle id="Oval-2" stroke-width="2" cx="9" cy="39" r="9"></circle>
            <circle id="Oval-2" stroke-width="2" cx="29" cy="119" r="9"></circle>
        </g>
        <g id="Group-4" transform="translate(385.500000, 106.000000) scale(-1, 1) translate(-385.500000, -106.000000) translate(310.000000, 42.000000)" stroke="#3E71E1">
            <path d="M38,119.014946 L81.1394589,119.014946 C93.2938506,119.014946 103.146932,109.161865 103.146932,97.0074729 L103.146932,97.0074729 C103.146932,84.8530812 113.000013,75 125.154405,75 L150.010992,75" id="Path-2" stroke-width="3" stroke-dasharray="20"></path>
            <path d="M18,49 L75.1544047,49 C79.5685556,49 83.1469318,52.5783763 83.1469318,56.9925271 L83.1469318,56.9925271 C83.1469318,61.4066779 86.7253081,64.9850542 91.1394589,64.9850542 L150.010992,64.9850542" id="Path-2" stroke-width="5"></path>
            <path d="M38,9 L85.1544047,9 C95.0914031,9 103.146932,17.0555288 103.146932,26.9925271 L103.146932,26.9925271 C103.146932,36.9295254 111.202461,44.9850542 121.139459,44.9850542 L150.010992,44.9850542" id="Path-2" stroke-width="4" stroke-dasharray="10"></path>
            <circle id="Oval-2" stroke-width="2" cx="29" cy="9" r="9"></circle>
            <circle id="Oval-2" stroke-width="2" cx="9" cy="49" r="9"></circle>
            <circle id="Oval-2" stroke-width="2" cx="29" cy="119" r="9"></circle>
        </g>
        <g id="Rectangle-3">
            <use fill="#FFFFFF" fill-rule="evenodd" xlink:href="#path-1"></use>
            <path stroke="#3E71E1" stroke-width="3" d="M198.090847,10.8374585 L202.629261,54.5428022 C215.384535,55.8479929 224.848257,56.5 231,56.5 C237.151743,56.5 246.615465,55.8479929 259.370739,54.5428022 L263.848254,11.4239225 L245.144565,40.9436925 L231.11085,4.46568758 L219.119732,40.9396492 L198.090847,10.8374585 Z"></path>
        </g>
        <text id="FTP-СЕРВЕР" font-family="DINCondensed-Bold, DIN Condensed" font-size="48" font-style="condensed" font-weight="bold" fill="#3E71E1">
            <tspan x="143.132" y="221">FTP СЕРВЕР</tspan>
        </text>
    </g>
</svg>