<?xml version="1.0" encoding="UTF-8"?>
<svg width="579px" height="578px" viewBox="0 0 579 578" version="1.1" xmlns="http://www.w3.org/2000/svg" xmlns:xlink="http://www.w3.org/1999/xlink">
    <!-- Generator: Sketch 48.2 (47327) - http://www.bohemiancoding.com/sketch -->
    <title>Untitled</title>
    <desc>Created with Sketch.</desc>
    <defs>
        <filter x="-0.7%" y="-0.7%" width="101.5%" height="101.5%" filterUnits="objectBoundingBox" id="filter-1">
            <feOffset dx="0" dy="0" in="SourceAlpha" result="shadowOffsetOuter1"></feOffset>
            <feGaussianBlur stdDeviation="1" in="shadowOffsetOuter1" result="shadowBlurOuter1"></feGaussianBlur>
            <feColorMatrix values="0 0 0 0 0   0 0 0 0 0   0 0 0 0 0  0 0 0 0.5 0" type="matrix" in="shadowBlurOuter1" result="shadowMatrixOuter1"></feColorMatrix>
            <feMerge>
                <feMergeNode in="shadowMatrixOuter1"></feMergeNode>
                <feMergeNode in="SourceGraphic"></feMergeNode>
            </feMerge>
        </filter>
    </defs>
    <g id="Page-1" stroke="none" stroke-width="1" fill="none" fill-rule="evenodd">
        <g id="Group" filter="url(#filter-1)" transform="translate(289.500000, 289.000000) rotate(-315.000000) translate(-289.500000, -289.000000) translate(85.000000, 85.000000)" fill="#D8D8D8">
            <path d="M204,392 C100.170467,392 16,307.829533 16,204 C16,100.170467 100.170467,16 204,16 C307.829533,16 392,100.170467 392,204 C392,307.829533 307.829533,392 204,392 Z M360.740236,178.209561 C358.186726,146.412708 344.584162,117.740262 319.932545,92.1922224 C295.044216,66.3988635 265.2163,51.6935485 230.448796,48.0762773 C222.758322,47.2761501 215.875328,52.861877 215.075198,60.5523505 C215.025123,61.0336471 215.000035,61.5172163 215.000035,62.0011109 L214.999989,134.330283 C214.999981,166.915083 241.415175,193.330289 273.999975,193.330297 C273.999984,193.330297 273.999994,193.330297 274.000003,193.330297 L346.785163,193.330254 C354.517152,193.330252 360.785165,187.062236 360.785163,179.330248 C360.785163,178.956235 360.770175,178.582373 360.740236,178.209561 Z M230.348165,359.512798 C262.145018,356.959288 290.817464,343.356725 316.365503,318.705108 C342.158862,293.816779 356.864177,263.988863 360.481448,229.221359 C361.281576,221.530885 355.695849,214.647891 348.005375,213.847761 C347.524079,213.797686 347.040509,213.772598 346.556615,213.772598 L274.227443,213.772552 C241.642643,213.772544 215.227437,240.187738 215.227429,272.772538 C215.227429,272.772547 215.227429,272.772557 215.227429,272.772566 L215.227472,345.557726 C215.227474,353.289714 221.49549,359.557728 229.227478,359.557726 C229.60149,359.557726 229.975353,359.542738 230.348165,359.512798 Z M48.0449273,178.209561 C48.0149879,178.582373 48.0000001,178.956235 48,179.330248 C47.9999981,187.062236 54.2680114,193.330252 61.9999995,193.330254 L134.78516,193.330297 C134.785169,193.330297 134.785178,193.330297 134.785188,193.330297 C167.369988,193.330289 193.785182,166.915083 193.785174,134.330283 L193.785128,62.0011109 C193.785128,61.5172163 193.76004,61.0336471 193.709965,60.5523505 C192.909835,52.861877 186.026841,47.2761501 178.336367,48.0762773 C143.568863,51.6935485 113.740947,66.3988635 88.8526177,92.1922224 C64.2010008,117.740262 50.5984373,146.412708 48.0449273,178.209561 Z M179.209558,359.740238 C179.582371,359.770177 179.956233,359.785165 180.330245,359.785165 C188.062233,359.785167 194.33025,353.517154 194.330252,345.785166 L194.330295,273.000006 C194.330295,272.999996 194.330295,272.999987 194.330295,272.999977 C194.330287,240.415177 167.915081,213.999984 135.33028,213.999992 L63.0011085,214.000037 C62.5172139,214.000037 62.0336448,214.025125 61.5523481,214.0752 C53.8618746,214.87533 48.2761477,221.758325 49.076275,229.448798 C52.6935461,264.216302 67.3988612,294.044219 93.1922201,318.932548 C118.740259,343.584165 147.412706,357.186728 179.209558,359.740238 Z M204,228 C217.254834,228 228,217.254834 228,204 C228,190.745166 217.254834,180 204,180 C190.745166,180 180,190.745166 180,204 C180,217.254834 190.745166,228 204,228 Z" id="Combined-Shape"></path>
            <path d="M204.5,0 L213,17 L196,17 L204.5,0 Z M204.5,408 L196,391 L213,391 L204.5,408 Z" id="Combined-Shape"></path>
            <path d="M204.5,0 L213,17 L196,17 L204.5,0 Z M204.5,408 L196,391 L213,391 L204.5,408 Z" id="Combined-Shape" transform="translate(204.500000, 204.000000) rotate(-365.000000) translate(-204.500000, -204.000000) "></path>
            <path d="M204.5,-2.84217094e-14 L213,17 L196,17 L204.5,-2.84217094e-14 Z M204.5,408 L196,391 L213,391 L204.5,408 Z" id="Combined-Shape" transform="translate(204.500000, 204.000000) rotate(-370.000000) translate(-204.500000, -204.000000) "></path>
            <path d="M204.5,8.52651283e-14 L213,17 L196,17 L204.5,8.52651283e-14 Z M204.5,408 L196,391 L213,391 L204.5,408 Z" id="Combined-Shape" transform="translate(204.500000, 204.000000) rotate(-375.000000) translate(-204.500000, -204.000000) "></path>
            <path d="M204.5,8.52651283e-14 L213,17 L196,17 L204.5,8.52651283e-14 Z M204.5,408 L196,391 L213,391 L204.5,408 Z" id="Combined-Shape" transform="translate(204.500000, 204.000000) rotate(-380.000000) translate(-204.500000, -204.000000) "></path>
            <path d="M204.5,1.13686838e-13 L213,17 L196,17 L204.5,1.13686838e-13 Z M204.5,408 L196,391 L213,391 L204.5,408 Z" id="Combined-Shape" transform="translate(204.500000, 204.000000) rotate(-385.000000) translate(-204.500000, -204.000000) "></path>
            <path d="M204.5,1.42108547e-13 L213,17 L196,17 L204.5,1.42108547e-13 Z M204.5,408 L196,391 L213,391 L204.5,408 Z" id="Combined-Shape" transform="translate(204.500000, 204.000000) rotate(-390.000000) translate(-204.500000, -204.000000) "></path>
            <path d="M204.5,1.70530257e-13 L213,17 L196,17 L204.5,1.70530257e-13 Z M204.5,408 L196,391 L213,391 L204.5,408 Z" id="Combined-Shape" transform="translate(204.500000, 204.000000) rotate(-395.000000) translate(-204.500000, -204.000000) "></path>
            <path d="M204.5,1.42108547e-13 L213,17 L196,17 L204.5,1.42108547e-13 Z M204.5,408 L196,391 L213,391 L204.5,408 Z" id="Combined-Shape" transform="translate(204.500000, 204.000000) rotate(-400.000000) translate(-204.500000, -204.000000) "></path>
            <path d="M204.5,1.13686838e-13 L213,17 L196,17 L204.5,1.13686838e-13 Z M204.5,408 L196,391 L213,391 L204.5,408 Z" id="Combined-Shape" transform="translate(204.500000, 204.000000) rotate(-405.000000) translate(-204.500000, -204.000000) "></path>
            <path d="M204.5,5.68434189e-14 L213,17 L196,17 L204.5,5.68434189e-14 Z M204.5,408 L196,391 L213,391 L204.5,408 Z" id="Combined-Shape" transform="translate(204.500000, 204.000000) rotate(-410.000000) translate(-204.500000, -204.000000) "></path>
            <path d="M204.5,2.84217094e-14 L213,17 L196,17 L204.5,2.84217094e-14 Z M204.5,408 L196,391 L213,391 L204.5,408 Z" id="Combined-Shape" transform="translate(204.500000, 204.000000) rotate(-415.000000) translate(-204.500000, -204.000000) "></path>
            <path d="M204.5,2.84217094e-14 L213,17 L196,17 L204.5,2.84217094e-14 Z M204.5,408 L196,391 L213,391 L204.5,408 Z" id="Combined-Shape" transform="translate(204.500000, 204.000000) rotate(-420.000000) translate(-204.500000, -204.000000) "></path>
            <path d="M204.5,2.84217094e-14 L213,17 L196,17 L204.5,2.84217094e-14 Z M204.5,408 L196,391 L213,391 L204.5,408 Z" id="Combined-Shape" transform="translate(204.500000, 204.000000) rotate(-425.000000) translate(-204.500000, -204.000000) "></path>
            <path d="M204.5,0 L213,17 L196,17 L204.5,0 Z M204.5,408 L196,391 L213,391 L204.5,408 Z" id="Combined-Shape" transform="translate(204.500000, 204.000000) rotate(-430.000000) translate(-204.500000, -204.000000) "></path>
            <path d="M204.5,0 L213,17 L196,17 L204.5,0 Z M204.5,408 L196,391 L213,391 L204.5,408 Z" id="Combined-Shape" transform="translate(204.500000, 204.000000) rotate(-435.000000) translate(-204.500000, -204.000000) "></path>
            <path d="M204.5,2.84217094e-14 L213,17 L196,17 L204.5,2.84217094e-14 Z M204.5,408 L196,391 L213,391 L204.5,408 Z" id="Combined-Shape" transform="translate(204.500000, 204.000000) rotate(-440.000000) translate(-204.500000, -204.000000) "></path>
            <path d="M204.5,0 L213,17 L196,17 L204.5,0 Z M204.5,408 L196,391 L213,391 L204.5,408 Z" id="Combined-Shape" transform="translate(204.500000, 204.000000) rotate(-445.000000) translate(-204.500000, -204.000000) "></path>
            <path d="M204.5,-2.84217094e-14 L213,17 L196,17 L204.5,-2.84217094e-14 Z M204.5,408 L196,391 L213,391 L204.5,408 Z" id="Combined-Shape" transform="translate(204.500000, 204.000000) rotate(-455.000000) translate(-204.500000, -204.000000) "></path>
            <path d="M204.5,-1.13686838e-13 L213,17 L196,17 L204.5,-1.13686838e-13 Z M204.5,408 L196,391 L213,391 L204.5,408 Z" id="Combined-Shape" transform="translate(204.500000, 204.000000) rotate(-460.000000) translate(-204.500000, -204.000000) "></path>
            <path d="M204.5,-1.42108547e-13 L213,17 L196,17 L204.5,-1.42108547e-13 Z M204.5,408 L196,391 L213,391 L204.5,408 Z" id="Combined-Shape" transform="translate(204.500000, 204.000000) rotate(-465.000000) translate(-204.500000, -204.000000) "></path>
            <path d="M204.5,-1.13686838e-13 L213,17 L196,17 L204.5,-1.13686838e-13 Z M204.5,408 L196,391 L213,391 L204.5,408 Z" id="Combined-Shape" transform="translate(204.500000, 204.000000) rotate(-470.000000) translate(-204.500000, -204.000000) "></path>
            <path d="M204.5,-1.13686838e-13 L213,17 L196,17 L204.5,-1.13686838e-13 Z M204.5,408 L196,391 L213,391 L204.5,408 Z" id="Combined-Shape" transform="translate(204.500000, 204.000000) rotate(-475.000000) translate(-204.500000, -204.000000) "></path>
            <path d="M204.5,-5.68434189e-14 L213,17 L196,17 L204.5,-5.68434189e-14 Z M204.5,408 L196,391 L213,391 L204.5,408 Z" id="Combined-Shape" transform="translate(204.500000, 204.000000) rotate(-480.000000) translate(-204.500000, -204.000000) "></path>
            <path d="M204.5,-5.68434189e-14 L213,17 L196,17 L204.5,-5.68434189e-14 Z M204.5,408 L196,391 L213,391 L204.5,408 Z" id="Combined-Shape" transform="translate(204.500000, 204.000000) rotate(-485.000000) translate(-204.500000, -204.000000) "></path>
            <path d="M204.5,-2.84217094e-14 L213,17 L196,17 L204.5,-2.84217094e-14 Z M204.5,408 L196,391 L213,391 L204.5,408 Z" id="Combined-Shape" transform="translate(204.500000, 204.000000) rotate(-490.000000) translate(-204.500000, -204.000000) "></path>
            <path d="M204.5,0 L213,17 L196,17 L204.5,0 Z M204.5,408 L196,391 L213,391 L204.5,408 Z" id="Combined-Shape" transform="translate(204.500000, 204.000000) rotate(-495.000000) translate(-204.500000, -204.000000) "></path>
            <path d="M204.5,2.84217094e-14 L213,17 L196,17 L204.5,2.84217094e-14 Z M204.5,408 L196,391 L213,391 L204.5,408 Z" id="Combined-Shape" transform="translate(204.500000, 204.000000) rotate(-500.000000) translate(-204.500000, -204.000000) "></path>
            <path d="M204.5,0 L213,17 L196,17 L204.5,0 Z M204.5,408 L196,391 L213,391 L204.5,408 Z" id="Combined-Shape" transform="translate(204.500000, 204.000000) rotate(-505.000000) translate(-204.500000, -204.000000) "></path>
            <path d="M204.5,5.68434189e-14 L213,17 L196,17 L204.5,5.68434189e-14 Z M204.5,408 L196,391 L213,391 L204.5,408 Z" id="Combined-Shape" transform="translate(204.500000, 204.000000) rotate(-510.000000) translate(-204.500000, -204.000000) "></path>
            <path d="M204.5,1.42108547e-13 L213,17 L196,17 L204.5,1.42108547e-13 Z M204.5,408 L196,391 L213,391 L204.5,408 Z" id="Combined-Shape" transform="translate(204.500000, 204.000000) rotate(-515.000000) translate(-204.500000, -204.000000) "></path>
            <path d="M204.5,1.13686838e-13 L213,17 L196,17 L204.5,1.13686838e-13 Z M204.5,408 L196,391 L213,391 L204.5,408 Z" id="Combined-Shape" transform="translate(204.500000, 204.000000) rotate(-520.000000) translate(-204.500000, -204.000000) "></path>
            <path d="M204.5,8.52651283e-14 L213,17 L196,17 L204.5,8.52651283e-14 Z M204.5,408 L196,391 L213,391 L204.5,408 Z" id="Combined-Shape" transform="translate(204.500000, 204.000000) rotate(-525.000000) translate(-204.500000, -204.000000) "></path>
            <path d="M204.5,8.52651283e-14 L213,17 L196,17 L204.5,8.52651283e-14 Z M204.5,408 L196,391 L213,391 L204.5,408 Z" id="Combined-Shape" transform="translate(204.500000, 204.000000) rotate(-530.000000) translate(-204.500000, -204.000000) "></path>
            <path d="M204.5,1.13686838e-13 L213,17 L196,17 L204.5,1.13686838e-13 Z M204.5,408 L196,391 L213,391 L204.5,408 Z" id="Combined-Shape" transform="translate(204.500000, 204.000000) rotate(-535.000000) translate(-204.500000, -204.000000) "></path>
            <path d="M204.5,0 L213,17 L196,17 L204.5,0 Z M204.5,408 L196,391 L213,391 L204.5,408 Z" id="Combined-Shape" transform="translate(204.500000, 204.000000) rotate(-270.000000) translate(-204.500000, -204.000000) "></path>
        </g>
    </g>
</svg>